<?xml version="1.0" encoding="UTF-8" standalone="no"?>
<!-- Generator: Adobe Illustrator 15.0.0, SVG Export Plug-In . SVG Version: 6.00 Build 0)  -->

<svg
   xmlns:dc="http://purl.org/dc/elements/1.1/"
   xmlns:cc="http://creativecommons.org/ns#"
   xmlns:rdf="http://www.w3.org/1999/02/22-rdf-syntax-ns#"
   xmlns:svg="http://www.w3.org/2000/svg"
   xmlns="http://www.w3.org/2000/svg"
   xmlns:sodipodi="http://sodipodi.sourceforge.net/DTD/sodipodi-0.dtd"
   xmlns:inkscape="http://www.inkscape.org/namespaces/inkscape"
   version="1.1"
   id="Capa_1"
   x="0px"
   y="0px"
   width="800px"
   height="600px"
   viewBox="0 0 800 600"
   enable-background="new 0 0 800 600"
   xml:space="preserve"
   sodipodi:docname="riley font 1 WHITE.svg"
   inkscape:version="0.92pre3 r"><metadata
     id="metadata93"><rdf:RDF><cc:Work
         rdf:about=""><dc:format>image/svg+xml</dc:format><dc:type
           rdf:resource="http://purl.org/dc/dcmitype/StillImage" /><dc:title></dc:title></cc:Work></rdf:RDF></metadata><defs
     id="defs91"><filter
       style="color-interpolation-filters:sRGB;"
       inkscape:label="Invert"
       id="filter287"><feColorMatrix
         type="hueRotate"
         values="180"
         result="color1"
         id="feColorMatrix283" /><feColorMatrix
         values="-1 0 0 0 1 0 -1 0 0 1 0 0 -1 0 1 -0.21 -0.72 -0.07 2 0 "
         result="color2"
         id="feColorMatrix285" /></filter><filter
       style="color-interpolation-filters:sRGB;"
       inkscape:label="Invert"
       id="filter293"><feColorMatrix
         type="hueRotate"
         values="180"
         result="color1"
         id="feColorMatrix289" /><feColorMatrix
         values="-1 0 0 0 1 0 -1 0 0 1 0 0 -1 0 1 -0.21 -0.72 -0.07 2 0 "
         result="color2"
         id="feColorMatrix291" /></filter><filter
       style="color-interpolation-filters:sRGB;"
       inkscape:label="Invert"
       id="filter299"><feColorMatrix
         type="hueRotate"
         values="180"
         result="color1"
         id="feColorMatrix295" /><feColorMatrix
         values="-1 0 0 0 1 0 -1 0 0 1 0 0 -1 0 1 -0.21 -0.72 -0.07 2 0 "
         result="color2"
         id="feColorMatrix297" /></filter></defs><sodipodi:namedview
     pagecolor="#ffffff"
     bordercolor="#666666"
     borderopacity="1"
     objecttolerance="10"
     gridtolerance="10"
     guidetolerance="10"
     inkscape:pageopacity="0"
     inkscape:pageshadow="2"
     inkscape:window-width="1920"
     inkscape:window-height="1016"
     id="namedview89"
     showgrid="false"
     inkscape:zoom="1.3716667"
     inkscape:cx="400"
     inkscape:cy="300"
     inkscape:window-x="0"
     inkscape:window-y="27"
     inkscape:window-maximized="1"
     inkscape:current-layer="Capa_1" /><g
     id="g339"
     inkscape:export-filename="/home/riley/Sync/BTsync/01_Design/Logo/2014-Logo/Exports/White-Logo-Transparent-1200px-01.png"
     inkscape:export-xdpi="135.10201"
     inkscape:export-ydpi="135.10201"><g
       style="filter:url(#filter299)"
       id="g30"><path
         d="m 104.082,252.173 c -25.209,0 -45.642,20.431 -45.642,45.636 0,25.21 20.432,45.644 45.642,45.644 25.207,0 45.639,-20.434 45.639,-45.644 0,-25.205 -20.432,-45.636 -45.639,-45.636 z m 0,84.877 c -21.671,0 -39.236,-17.567 -39.236,-39.241 0,-21.668 17.565,-39.233 39.236,-39.233 21.668,0 39.235,17.565 39.235,39.233 0,21.673 -17.567,39.241 -39.235,39.241 z"
         id="path10"
         inkscape:connector-curvature="0" /><g
         id="g20"><path
           d="m 210.755,342.473 c 0,0 -3.44,-21.964 -5.819,-25.404 0,0 15.876,11.376 19.842,11.113 0,0 2.914,-9.261 -24.867,-30.69 0,0 -14.822,-11.908 -11.907,-22.491 0,0 0.997,-12.467 20.371,-10.055 1.456,0.18 2.07,-0.448 1.588,-1.06 0,0 -14.457,-3.304 -16.937,-5.822 0,0 -8.465,-10.316 -17.722,-3.704 0,0 -6.353,3.442 -16.941,31.223 0,0 -22.22,39.687 -16.664,46.036 0,0 6.021,0.839 12.275,-15.726 0,0 5.893,43.874 43.215,35.363 0,0 -32.997,5.767 -42.792,-40.271 0,0 -3.438,10.052 -7.407,12.167 0,0 -6.085,-6.874 12.964,-36.513 0,0 7.406,-21.431 15.875,-20.106 0,0 7.143,3.702 0,10.848 0,0 6.625,-2.735 10.059,8.202 0,0 2.377,7.407 12.43,14.289 0,0 11.909,9.787 14.818,17.725 0,0 -12.699,-6.352 -24.607,-13.495 0,0 2.769,9.836 6.351,20.107 0,0 8.997,43.025 33.073,31.751 0.002,0.001 -14.019,-0.787 -17.198,-13.487 z M 184.83,262.034 c -1.313,0 -2.381,-1.067 -2.381,-2.378 0,-1.317 1.068,-2.382 2.381,-2.382 1.315,0 2.377,1.065 2.377,2.382 0.001,1.31 -1.062,2.378 -2.377,2.378 z"
           id="path12"
           inkscape:connector-curvature="0" /><path
           d="m 186.072,259.656 c 0,0.683 -0.556,1.238 -1.242,1.238 -0.687,0 -1.241,-0.555 -1.241,-1.238 0,-0.688 0.554,-1.246 1.241,-1.246 0.686,0 1.242,0.558 1.242,1.246 z"
           id="path14"
           inkscape:connector-curvature="0" /><path
           d="m 179.512,350.603 c 0,0 -15.716,-8.183 -27.174,4.583 0,0 7.203,0.985 12.439,-1.31 0,0 -3.927,5.238 -3.272,6.877 -0.001,0 11.788,-0.329 18.007,-10.15 z"
           id="path16"
           inkscape:connector-curvature="0" /><path
           d="m 197.18,351.314 c 0,0 -20.692,-1.307 -23.642,9.818 0,0 6.581,-0.495 10.789,-3.525 0,0 -2.489,5.397 -1.594,6.724 0,0 10.795,-3.119 14.447,-13.017 z"
           id="path18"
           inkscape:connector-curvature="0" /></g><circle
         cx="127.037"
         cy="276.45999"
         r="4.27"
         id="circle22" /><path
         d="m 140.382,294.341 c 0,4.865 -3.947,8.811 -8.806,8.811 -4.866,0 -8.809,-3.946 -8.809,-8.811 0,-4.863 3.942,-8.806 8.809,-8.806 4.859,0 8.806,3.943 8.806,8.806 z"
         id="path24"
         inkscape:connector-curvature="0" /><path
         d="m 159.552,345.797 c 0,0 -8.969,-10.119 -8.969,-15.407 0,0 -3.587,6.669 -11.631,5.72 -9.326,8.422 -21.677,13.547 -35.231,13.547 -29.039,0 -52.58,-23.541 -52.58,-52.579 0,-29.037 23.541,-52.577 52.58,-52.577 24.244,0 44.642,16.414 50.721,38.731 3.044,-8.594 12.016,-31.46 21.893,-33.322 0,0 6.396,-3.497 15.564,0.951 -3.954,-9.519 -13.334,-16.219 -24.281,-16.219 H 39.822 c -14.52,0 -26.29,11.772 -26.29,26.292 v 72.294 c 0,14.519 11.771,26.292 26.29,26.292 h 112.304 c -2.739,-1.961 -8.02,-7.473 7.426,-13.723 z"
         id="path26"
         inkscape:connector-curvature="0" /><rect
         x="33.25"
         y="217.479"
         width="33.957001"
         height="13.877"
         id="rect28" /></g><g
       style="filter:url(#filter293)"
       id="g58"><g
         id="g44"><path
           d="m 279.308,267.899 c -6.728,0 -12.396,2.677 -16.071,7.47 v -6.583 h -10.453 v 58.149 h 10.453 v -33.623 c 0,-8.613 5.742,-14.629 13.963,-14.629 2.492,0 4.254,0.286 5.293,0.526 l 1.375,0.318 v -11.29 l -0.998,-0.111 c -0.884,-0.097 -2.214,-0.227 -3.562,-0.227 z"
           id="path32"
           inkscape:connector-curvature="0" /><path
           d="m 306.454,318.377 c -0.945,0.105 -1.922,0.214 -2.741,0.214 -1.752,0 -3.093,-0.351 -3.093,-4.756 v -45.049 h -10.453 v 46.49 c 0,10.737 6.1,12.989 11.216,12.989 2.163,0 4.115,-0.335 5.644,-0.973 l 0.691,-0.288 v -7.514 l -0.021,-1.251 z"
           id="path34"
           inkscape:connector-curvature="0" /><path
           d="m 295.394,261.74 c 1.719,0 3.373,-0.67 4.676,-1.908 1.308,-1.308 2.015,-3.033 1.992,-4.858 -0.023,-1.771 -0.738,-3.414 -1.992,-4.605 -1.285,-1.285 -2.946,-1.993 -4.676,-1.993 -1.73,0 -3.392,0.708 -4.656,1.973 -1.275,1.211 -1.99,2.854 -2.012,4.625 -0.023,1.825 0.684,3.55 2.013,4.878 1.282,1.218 2.935,1.888 4.655,1.888 z"
           id="path36"
           inkscape:connector-curvature="0" /><path
           d="m 326.676,318.701 c -3.89,0 -5.866,-1.164 -5.866,-7.53 v -63.792 h -10.453 v 64.348 c 0,7.036 1.964,12.103 5.546,14.279 3.227,1.891 5.845,2.595 9.663,2.595 1.731,0 4.116,-0.179 5.647,-1.028 l 0.578,-0.32 v -8.944 l -1.281,0.183 c -0.55,0.077 -1.781,0.209 -3.834,0.209 z"
           id="path38"
           inkscape:connector-curvature="0" /><path
           d="m 360.177,267.122 c -8.415,0 -15.443,2.878 -20.886,8.555 -5.433,5.664 -8.188,13.202 -8.188,22.406 v 0.444 c 0,8.993 2.723,16.277 8.093,21.646 5.443,5.444 12.577,8.205 21.204,8.205 9.463,0 17.357,-3.447 23.464,-10.244 l 0.718,-0.8 -7.024,-6.878 -0.784,0.836 c -5.128,5.471 -9.413,7.409 -16.375,7.409 -10.658,0 -17.922,-7.001 -18.778,-17.944 h 45.195 l 0.101,-1.01 c 0.117,-1.166 0.117,-2.435 0.117,-3.662 0,-8.043 -2.522,-14.938 -7.489,-20.484 -5.007,-5.705 -11.343,-8.479 -19.368,-8.479 z m 0,9.898 c 4.298,0 8.066,1.537 11.2,4.565 2.85,2.755 4.365,5.944 4.613,9.719 h -33.753 c 0.547,-3.751 2.348,-6.928 5.481,-9.682 3.474,-3.054 7.666,-4.602 12.459,-4.602 z"
           id="path40"
           inkscape:connector-curvature="0" /><path
           d="m 430.839,268.786 -16.99,45.131 -17.628,-45.131 h -10.625 l 23.073,58.252 -2.276,5.902 c -1.259,3.146 -2.586,5.197 -3.997,6.235 -1.059,0.674 -2.538,1.044 -4.167,1.044 -1.876,0 -3.663,-0.285 -5.168,-0.821 l -1.5,-0.536 v 9.876 l 0.68,0.291 c 1.686,0.723 3.701,1.091 5.988,1.091 4.79,0 8.605,-1.489 11.684,-4.565 2.192,-2.308 4.049,-5.515 5.669,-9.797 l 25.881,-66.972 z"
           id="path42"
           inkscape:connector-curvature="0" /></g><path
         d="M 451.278,325.814 V 248.5 h 16.528 v 28.729 c 1.663,-4.88 8.207,-8.319 16.639,-8.319 7.875,0 14.53,2.773 19.744,8.43 5.324,5.547 7.985,12.424 7.985,20.521 0,8.097 -2.661,14.974 -7.985,20.632 -5.214,5.545 -11.869,8.317 -19.744,8.317 -8.432,0 -14.976,-3.438 -16.639,-8.317 v 7.321 z m 40.266,-17.97 c 2.772,-2.771 4.104,-6.1 4.104,-9.982 0,-3.882 -1.331,-7.21 -4.104,-9.873 -2.773,-2.772 -6.101,-4.104 -10.095,-4.104 -4.104,0 -7.542,1.332 -10.427,4.104 -2.772,2.663 -4.215,5.99 -4.215,9.873 0,3.883 1.442,7.211 4.215,9.982 2.885,2.662 6.323,3.994 10.427,3.994 3.994,0 7.322,-1.332 10.095,-3.994 z"
         id="path46"
         inkscape:connector-curvature="0" /><path
         d="m 517.948,325.814 v -55.906 h 16.528 v 7.654 c 2.551,-5.658 8.54,-8.874 16.193,-8.874 1.109,0 2.553,0.111 4.327,0.333 v 15.529 c -1.665,-0.333 -3.55,-0.554 -5.547,-0.554 -9.429,0 -14.974,5.325 -14.974,14.531 v 27.287 z"
         id="path48"
         inkscape:connector-curvature="0" /><path
         d="m 563.208,277.34 c 5.324,-5.656 11.98,-8.43 19.854,-8.43 8.431,0 14.976,3.438 16.64,8.319 v -7.321 h 16.527 v 36.271 c 0,4.438 1.109,6.213 4.104,6.213 0.777,0 1.774,-0.11 2.773,-0.222 v 13.754 c -1.774,0.555 -4.216,0.886 -7.433,0.886 -3.66,0 -6.766,-0.664 -9.095,-1.994 -2.552,-1.666 -4.216,-3.66 -4.991,-5.99 -3.661,5.434 -9.762,8.098 -18.525,8.098 -7.874,0 -14.53,-2.772 -19.854,-8.32 -5.214,-5.656 -7.876,-12.534 -7.876,-20.742 0,-8.098 2.662,-14.975 7.876,-20.522 z m 33.167,30.504 c 2.884,-2.771 4.324,-6.1 4.324,-9.982 0,-3.882 -1.44,-7.21 -4.324,-9.873 -2.774,-2.772 -6.213,-4.104 -10.317,-4.104 -3.992,0 -7.319,1.332 -10.094,4.104 -2.772,2.663 -4.104,5.99 -4.104,9.873 0,3.883 1.332,7.211 4.104,9.982 2.774,2.662 6.102,3.994 10.094,3.994 4.104,0 7.543,-1.332 10.317,-3.994 z"
         id="path50"
         inkscape:connector-curvature="0" /><path
         d="m 627.66,325.814 v -55.906 h 16.528 v 6.989 c 2.329,-4.881 8.54,-8.208 16.083,-8.208 13.422,0 21.187,8.651 21.187,23.183 v 14.086 c 0,4.326 0.888,5.88 3.66,5.88 h 1.109 l 0.666,-0.111 v 13.977 c -1.331,0.555 -3.771,0.776 -7.21,0.776 -9.871,0 -14.753,-5.323 -14.753,-15.974 v -16.638 c 0,-6.544 -3.438,-10.538 -9.982,-10.538 -6.213,0 -10.76,4.548 -10.76,11.093 v 31.392 H 627.66 Z"
         id="path52"
         inkscape:connector-curvature="0" /><path
         d="m 696.549,277.34 c 5.323,-5.656 11.98,-8.43 19.855,-8.43 8.43,0 14.974,3.438 16.639,8.319 V 248.5 h 16.527 v 57.679 c 0,4.438 1.109,6.213 4.104,6.213 0.776,0 1.773,-0.11 2.772,-0.222 v 13.754 c -1.774,0.555 -4.215,0.886 -7.432,0.886 -3.661,0 -6.767,-0.664 -9.095,-1.994 -2.553,-1.666 -4.216,-3.66 -4.993,-5.99 -3.66,5.434 -9.761,8.098 -18.523,8.098 -7.875,0 -14.532,-2.772 -19.855,-8.32 -5.214,-5.656 -7.875,-12.534 -7.875,-20.742 10e-4,-8.098 2.662,-14.975 7.876,-20.522 z m 33.167,30.504 c 2.883,-2.771 4.324,-6.1 4.324,-9.982 0,-3.882 -1.441,-7.21 -4.324,-9.873 -2.775,-2.772 -6.213,-4.104 -10.317,-4.104 -3.992,0 -7.32,1.332 -10.094,4.104 -2.772,2.663 -4.104,5.99 -4.104,9.873 0,3.883 1.332,7.211 4.104,9.982 2.773,2.662 6.102,3.994 10.094,3.994 4.104,0 7.541,-1.332 10.317,-3.994 z"
         id="path54"
         inkscape:connector-curvature="0" /><path
         d="m 762.555,284.883 h -7.321 v -14.975 h 7.321 V 248.5 h 16.083 v 21.408 h 12.424 v 14.975 h -12.424 v 19.966 c 0,5.325 2.106,7.433 7.099,7.433 0.888,0 2.329,-0.111 4.216,-0.444 v 14.642 c -2.22,0.554 -4.881,0.775 -8.098,0.775 -12.867,0 -19.3,-6.655 -19.3,-19.966 z"
         id="path56"
         inkscape:connector-curvature="0" /></g><g
       style="filter:url(#filter287)"
       id="g84"><g
         id="g82"><path
           d="m 451.602,359.66 v -22.635 h 8.638 c 1.917,0 3.637,0.682 5.131,2.047 1.494,1.364 2.24,3.149 2.24,5.325 0,2.11 -0.746,3.864 -2.24,5.26 -1.461,1.396 -3.183,2.079 -5.131,2.079 h -4.579 v 7.924 z m 4.058,-11.594 h 4.384 c 1.818,0 3.54,-1.331 3.54,-3.669 0,-2.372 -1.722,-3.702 -3.54,-3.702 h -4.384 z"
           id="path60"
           inkscape:connector-curvature="0" /><path
           d="m 480.995,359.66 v -22.635 h 4.06 v 8.833 h 10.878 v -8.833 h 4.026 v 22.635 h -4.026 v -10.133 h -10.878 v 10.133 z"
           id="path62"
           inkscape:connector-curvature="0" /><path
           d="m 517.012,356.736 c -2.305,-2.241 -3.474,-5.033 -3.474,-8.346 0,-3.311 1.169,-6.104 3.474,-8.344 2.306,-2.274 5.131,-3.411 8.477,-3.411 3.344,0 6.168,1.137 8.474,3.411 2.339,2.239 3.508,5.033 3.508,8.344 0,3.312 -1.169,6.104 -3.474,8.346 -2.307,2.241 -5.164,3.378 -8.508,3.378 -3.346,0 -6.172,-1.136 -8.477,-3.378 z m 2.794,-2.597 c 1.525,1.526 3.441,2.305 5.683,2.305 2.239,0 4.123,-0.778 5.649,-2.305 1.526,-1.559 2.306,-3.474 2.306,-5.748 0,-2.271 -0.779,-4.188 -2.306,-5.747 -1.526,-1.558 -3.41,-2.339 -5.649,-2.339 -2.241,0 -4.157,0.781 -5.683,2.339 -1.526,1.56 -2.272,3.476 -2.272,5.747 -10e-4,2.306 0.745,4.221 2.272,5.748 z"
           id="path64"
           inkscape:connector-curvature="0" /><path
           d="m 554.494,359.66 v -18.965 h -6.138 v -3.67 h 16.333 v 3.67 h -6.136 v 18.965 z"
           id="path66"
           inkscape:connector-curvature="0" /><path
           d="m 578.982,356.736 c -2.306,-2.241 -3.474,-5.033 -3.474,-8.346 0,-3.311 1.168,-6.104 3.474,-8.344 2.307,-2.274 5.131,-3.411 8.477,-3.411 3.344,0 6.169,1.137 8.475,3.411 2.338,2.239 3.507,5.033 3.507,8.344 0,3.312 -1.169,6.104 -3.475,8.346 -2.305,2.241 -5.163,3.378 -8.507,3.378 -3.346,0 -6.17,-1.136 -8.477,-3.378 z m 2.794,-2.597 c 1.526,1.526 3.441,2.305 5.683,2.305 2.24,0 4.124,-0.778 5.649,-2.305 1.526,-1.559 2.306,-3.474 2.306,-5.748 0,-2.271 -0.779,-4.188 -2.306,-5.747 -1.525,-1.558 -3.409,-2.339 -5.649,-2.339 -2.241,0 -4.156,0.781 -5.683,2.339 -1.526,1.56 -2.272,3.476 -2.272,5.747 0,2.306 0.746,4.221 2.272,5.748 z"
           id="path68"
           inkscape:connector-curvature="0" /><path
           d="m 632.179,340.047 -2.693,2.467 c -1.527,-1.46 -3.411,-2.209 -5.716,-2.209 -2.273,0 -4.188,0.781 -5.714,2.308 -1.528,1.526 -2.274,3.44 -2.274,5.747 0,2.306 0.746,4.221 2.274,5.746 1.525,1.526 3.44,2.274 5.714,2.274 2.144,0 3.962,-0.649 5.423,-1.947 v -4.156 h -6.3 v -3.606 h 10.132 v 9.125 c -2.176,2.63 -5.521,4.254 -9.255,4.254 -3.344,0 -6.202,-1.104 -8.54,-3.312 -2.306,-2.241 -3.476,-5.033 -3.476,-8.377 0,-3.345 1.17,-6.138 3.476,-8.377 2.338,-2.242 5.196,-3.347 8.54,-3.347 3.344,-10e-4 6.136,1.135 8.409,3.41 z"
           id="path70"
           inkscape:connector-curvature="0" /><path
           d="m 646.929,359.66 v -22.635 h 8.8 c 2.045,0 3.767,0.682 5.194,2.08 1.43,1.362 2.146,3.052 2.146,5.098 0,2.955 -1.657,5.391 -4.126,6.429 l 5.488,9.028 h -4.579 l -4.838,-8.055 h -0.064 -3.962 v 8.055 z m 4.058,-11.692 h 4.319 c 2.207,0 3.732,-1.525 3.732,-3.7 0,-2.078 -1.46,-3.572 -3.408,-3.572 h -4.644 v 7.272 z"
           id="path72"
           inkscape:connector-curvature="0" /><path
           d="m 674.796,359.66 9.449,-22.635 h 3.442 l 9.449,22.635 h -4.287 l -1.85,-4.515 h -10.067 l -1.851,4.515 z m 7.402,-7.858 h 7.536 l -3.768,-9.223 z"
           id="path74"
           inkscape:connector-curvature="0" /><path
           d="m 710.133,359.66 v -22.635 h 8.637 c 1.917,0 3.637,0.682 5.131,2.047 1.494,1.364 2.241,3.149 2.241,5.325 0,2.11 -0.747,3.864 -2.241,5.26 -1.461,1.396 -3.183,2.079 -5.131,2.079 h -4.579 v 7.924 z m 4.057,-11.594 h 4.385 c 1.817,0 3.54,-1.331 3.54,-3.669 0,-2.372 -1.723,-3.702 -3.54,-3.702 h -4.385 z"
           id="path76"
           inkscape:connector-curvature="0" /><path
           d="m 739.525,359.66 v -22.635 h 4.06 v 8.833 h 10.879 v -8.833 h 4.026 v 22.635 h -4.026 v -10.133 h -10.879 v 10.133 z"
           id="path78"
           inkscape:connector-curvature="0" /><path
           d="m 779.506,359.66 v -8.769 l -8.149,-13.866 h 4.384 l 5.812,9.97 5.781,-9.97 h 4.351 l -8.151,13.866 v 8.769 z"
           id="path80"
           inkscape:connector-curvature="0" /></g></g></g></svg>